<?xml version="1.0" encoding="UTF-8"?>
<svg width="174px" height="64px" viewBox="0 0 174 64" version="1.1" xmlns="http://www.w3.org/2000/svg" xmlns:xlink="http://www.w3.org/1999/xlink">
    <!-- Generator: Sketch 47.1 (45422) - http://www.bohemiancoding.com/sketch -->
    <title>Artboard</title>
    <desc>Created with Sketch.</desc>
    <defs></defs>
    <g id="Page-1" stroke="none" stroke-width="1" fill="none" fill-rule="evenodd">
        <g id="Artboard">
            <g id="noun_886865_cc" fill="#D0BC77">
                <path d="M42,3.39427855 C41.0961459,3.03433903 40.1200617,2.84444444 39.1111111,2.84444444 C36.6321778,2.84444444 34.3516444,3.99075556 32.8540444,5.98897778 C32.4529778,6.52373333 31.5470222,6.52373333 31.1466667,5.98897778 C29.6483556,3.99075556 27.3678222,2.84444444 24.8888889,2.84444444 C22.4099556,2.84444444 20.1294222,3.99075556 18.6318222,5.98897778 C18.2307556,6.52373333 17.3248,6.52373333 16.9244444,5.98897778 C15.4261333,3.99075556 13.1456,2.84444444 10.6666667,2.84444444 C6.35377778,2.84444444 2.84444444,6.35377778 2.84444444,10.6666667 C2.84444444,13.1463111 3.99004444,15.4275556 5.98897778,16.9237333 C6.25635556,17.1242667 6.41635556,17.4435556 6.41635556,17.7777778 C6.41635556,18.112 6.25635556,18.4312889 5.98897778,18.6318222 C3.99004444,20.128 2.84444444,22.4092444 2.84444444,24.8888889 C2.84444444,27.3685333 3.99004444,29.6497778 5.98897778,31.1459556 C6.25635556,31.3464889 6.41635556,31.6657778 6.41635556,32 C6.41635556,32.3342222 6.25635556,32.6535111 5.98897778,32.8540444 C3.99004444,34.3502222 2.84444444,36.6314667 2.84444444,39.1111111 C2.84444444,41.5907556 3.99004444,43.872 5.98897778,45.3681778 C6.25635556,45.5687111 6.41635556,45.888 6.41635556,46.2222222 C6.41635556,46.5564444 6.25635556,46.8757333 5.98897778,47.0762667 C3.99004444,48.5724444 2.84444444,50.8536889 2.84444444,53.3333333 C2.84444444,55.4204444 3.65937778,57.3838222 5.13848889,58.8622222 C5.27715556,59.0008889 5.4592,59.0705778 5.64124444,59.0705778 C5.82328889,59.0705778 6.00533333,59.0008889 6.144,58.8622222 C6.42204444,58.5841778 6.42204444,58.1340444 6.144,57.8567111 C4.93368889,56.6464 4.26666667,55.04 4.26666667,53.3333333 C4.26666667,51.3052444 5.20462222,49.44 6.8416,48.2140444 C7.46595556,47.7468444 7.83786667,47.0016 7.83786667,46.2222222 C7.83786667,45.4428444 7.46595556,44.6983111 6.8416,44.2304 C5.20462222,43.0044444 4.26666667,41.1392 4.26666667,39.1111111 C4.26666667,37.0830222 5.20462222,35.2177778 6.8416,33.9918222 C7.46595556,33.5246222 7.83786667,32.7793778 7.83786667,32 C7.83786667,31.2206222 7.46595556,30.4760889 6.8416,30.0081778 C5.20462222,28.7822222 4.26666667,26.9169778 4.26666667,24.8888889 C4.26666667,22.8608 5.20462222,20.9955556 6.8416,19.7696 C7.46595556,19.3024 7.83786667,18.5571556 7.83786667,17.7777778 C7.83786667,16.9984 7.46595556,16.2538667 6.8416,15.7859556 C5.20462222,14.56 4.26666667,12.6947556 4.26666667,10.6666667 C4.26666667,7.13813333 7.13742222,4.26666667 10.6666667,4.26666667 C12.6940444,4.26666667 14.56,5.20533333 15.7859556,6.84231111 C16.2538667,7.46666667 16.9984,7.83857778 17.7777778,7.83857778 C18.5571556,7.83857778 19.3016889,7.46666667 19.7703111,6.84231111 C20.9955556,5.20533333 22.8615111,4.26666667 24.8888889,4.26666667 C26.9162667,4.26666667 28.7822222,5.20533333 30.0081778,6.84231111 C30.4760889,7.46666667 31.2206222,7.83857778 32,7.83857778 C32.7793778,7.83857778 33.5239111,7.46666667 33.9925333,6.84231111 C35.2177778,5.20533333 37.0837333,4.26666667 39.1111111,4.26666667 C40.1359247,4.26666667 41.1194922,4.5065123 42,4.95515907 L42,63.6064814 C41.0740499,63.8654409 40.1043753,64 39.1111111,64 C36.4394667,64 33.9384889,63.0264889 32,61.2771556 C30.0615111,63.0264889 27.5605333,64 24.8888889,64 C22.2172444,64 19.7162667,63.0264889 17.7777778,61.2771556 C15.8392889,63.0264889 13.3383111,64 10.6666667,64 C4.78506667,64 0,59.2149333 0,53.3333333 C0,50.6616889 0.9728,48.16 2.72213333,46.2222222 C0.9728,44.2844444 0,41.7827556 0,39.1111111 C0,36.4394667 0.9728,33.9377778 2.72213333,32 C0.9728,30.0622222 0,27.5605333 0,24.8888889 C0,22.2172444 0.9728,19.7155556 2.72213333,17.7777778 C0.9728,15.84 0,13.3383111 0,10.6666667 C0,4.78506667 4.78506667,0 10.6666667,0 C13.3383111,0 15.8392889,0.973511111 17.7777778,2.72284444 C19.7162667,0.973511111 22.2172444,0 24.8888889,0 C27.5605333,0 30.0615111,0.973511111 32,2.72284444 C33.9384889,0.973511111 36.4394667,0 39.1111111,0 C40.1043753,0 41.0740499,0.134559122 42,0.393518608 L42,3.39427855 Z M19.5377778,47.9822222 C20.0078222,47.5121778 20.2666667,46.8871111 20.2666667,46.2222222 C20.2666667,45.5573333 20.0078222,44.9322667 19.5377778,44.4622222 C19.2597333,44.1848889 18.8103111,44.1841778 18.5322667,44.4622222 C18.2542222,44.7402667 18.2542222,45.1904 18.5322667,45.4684444 C18.7335111,45.6696889 18.8444444,45.9377778 18.8444444,46.2222222 C18.8444444,46.5066667 18.7335111,46.7747556 18.5315556,46.9767111 C18.1162667,47.3927111 17.4385778,47.3927111 17.0232889,46.9767111 C16.7452444,46.6986667 16.2958222,46.6986667 16.0177778,46.9767111 C15.7397333,47.2547556 15.7397333,47.7041778 16.0177778,47.9822222 C16.5034667,48.4672 17.1399111,48.7096889 17.7777778,48.7096889 C18.4156444,48.7096889 19.0520889,48.4672 19.5377778,47.9822222 Z M19.5377778,33.76 C20.0078222,33.2899556 20.2666667,32.6648889 20.2666667,32 C20.2666667,31.3351111 20.0078222,30.7100444 19.5377778,30.24 C19.2597333,29.9626667 18.8103111,29.9619556 18.5322667,30.24 C18.2542222,30.5180444 18.2542222,30.9681778 18.5322667,31.2462222 C18.7335111,31.4474667 18.8444444,31.7155556 18.8444444,32 C18.8444444,32.2844444 18.7335111,32.5525333 18.5315556,32.7544889 C18.1162667,33.1704889 17.4385778,33.1704889 17.0232889,32.7544889 C16.7452444,32.4764444 16.2958222,32.4764444 16.0177778,32.7544889 C15.7397333,33.0325333 15.7397333,33.4819556 16.0177778,33.76 C16.5034667,34.2449778 17.1399111,34.4874667 17.7777778,34.4874667 C18.4156444,34.4874667 19.0520889,34.2449778 19.5377778,33.76 Z M19.5377778,19.5377778 C20.0078222,19.0677333 20.2666667,18.4426667 20.2666667,17.7777778 C20.2666667,17.1128889 20.0078222,16.4878222 19.5377778,16.0177778 C19.2597333,15.7404444 18.8103111,15.7397333 18.5322667,16.0177778 C18.2542222,16.2958222 18.2542222,16.7459556 18.5322667,17.024 C18.7335111,17.2252444 18.8444444,17.4933333 18.8444444,17.7777778 C18.8444444,18.0622222 18.7335111,18.3303111 18.5315556,18.5322667 C18.1162667,18.9482667 17.4385778,18.9482667 17.0232889,18.5322667 C16.7452444,18.2542222 16.2958222,18.2542222 16.0177778,18.5322667 C15.7397333,18.8103111 15.7397333,19.2597333 16.0177778,19.5377778 C16.5034667,20.0227556 17.1399111,20.2652444 17.7777778,20.2652444 C18.4156444,20.2652444 19.0520889,20.0227556 19.5377778,19.5377778 Z M33.76,47.9822222 C34.2300444,47.5121778 34.4888889,46.8871111 34.4888889,46.2222222 C34.4888889,45.5573333 34.2300444,44.9322667 33.76,44.4622222 C33.4819556,44.1848889 33.0325333,44.1841778 32.7544889,44.4622222 C32.4764444,44.7402667 32.4764444,45.1904 32.7544889,45.4684444 C32.9557333,45.6696889 33.0666667,45.9377778 33.0666667,46.2222222 C33.0666667,46.5066667 32.9557333,46.7747556 32.7537778,46.9767111 C32.3384889,47.3927111 31.6608,47.3927111 31.2455111,46.9767111 C30.9674667,46.6986667 30.5180444,46.6986667 30.24,46.9767111 C29.9619556,47.2547556 29.9619556,47.7041778 30.24,47.9822222 C30.7256889,48.4672 31.3621333,48.7096889 32,48.7096889 C32.6378667,48.7096889 33.2743111,48.4672 33.76,47.9822222 Z M33.76,33.76 C34.2300444,33.2899556 34.4888889,32.6648889 34.4888889,32 C34.4888889,31.3351111 34.2300444,30.7100444 33.76,30.24 C33.4819556,29.9626667 33.0325333,29.9619556 32.7544889,30.24 C32.4764444,30.5180444 32.4764444,30.9681778 32.7544889,31.2462222 C32.9557333,31.4474667 33.0666667,31.7155556 33.0666667,32 C33.0666667,32.2844444 32.9557333,32.5525333 32.7537778,32.7544889 C32.3384889,33.1704889 31.6608,33.1704889 31.2455111,32.7544889 C30.9674667,32.4764444 30.5180444,32.4764444 30.24,32.7544889 C29.9619556,33.0325333 29.9619556,33.4819556 30.24,33.76 C30.7256889,34.2449778 31.3621333,34.4874667 32,34.4874667 C32.6378667,34.4874667 33.2743111,34.2449778 33.76,33.76 Z M33.76,19.5377778 C34.2300444,19.0677333 34.4888889,18.4426667 34.4888889,17.7777778 C34.4888889,17.1128889 34.2300444,16.4878222 33.76,16.0177778 C33.4819556,15.7404444 33.0325333,15.7397333 32.7544889,16.0177778 C32.4764444,16.2958222 32.4764444,16.7459556 32.7544889,17.024 C32.9557333,17.2252444 33.0666667,17.4933333 33.0666667,17.7777778 C33.0666667,18.0622222 32.9557333,18.3303111 32.7537778,18.5322667 C32.3384889,18.9482667 31.6608,18.9482667 31.2455111,18.5322667 C30.9674667,18.2542222 30.5180444,18.2542222 30.24,18.5322667 C29.9619556,18.8103111 29.9619556,19.2597333 30.24,19.5377778 C30.7256889,20.0227556 31.3621333,20.2652444 32,20.2652444 C32.6378667,20.2652444 33.2743111,20.0227556 33.76,19.5377778 Z" id="Combined-Shape"></path>
            </g>
            <text id="BEURRÉ-COMMME-UN-PET" font-family="Gotham-Medium, Gotham" font-size="20" font-weight="400">
                <tspan x="49" y="18" fill="#1A1A1A">BEURRÉ</tspan>
                <tspan x="49" y="38" fill="#1A1A1A">COMMME</tspan>
                <tspan x="145.84" y="38" font-family="Gotham-Bold, Gotham" font-weight="bold" fill="#1A1A1A"></tspan>
                <tspan x="49" y="58" font-family="Baskerville" font-weight="normal" fill="#D0BC77">UN PETIT LU</tspan>
            </text>
        </g>
    </g>
</svg>